<?xml version="1.0" encoding="UTF-8" ?>
<!DOCTYPE svg PUBLIC "-//W3C//DTD SVG 1.1//EN" "http://www.w3.org/Graphics/SVG/1.1/DTD/svg11.dtd">
<svg width="135pt" height="105pt" viewBox="0 0 135 105" version="1.1" xmlns="http://www.w3.org/2000/svg">
<g id="#ffffffff">
</g>
<g id="#20a094ff">
<path fill="#20a094" opacity="1.00" d=" M 1.43 1.95 C 14.70 1.82 27.96 1.92 41.23 1.98 C 51.90 14.93 61.93 28.42 72.48 41.48 C 74.12 43.48 75.55 45.64 76.88 47.86 C 64.54 47.94 52.20 47.95 39.87 47.88 C 37.47 48.13 35.93 46.14 34.66 44.43 C 23.64 30.23 12.34 16.24 1.43 1.95 Z" />
<path fill="#20a094" opacity="1.00" d=" M 58.40 57.08 C 71.50 56.87 84.59 57.02 97.69 57.00 C 106.14 66.70 113.65 77.17 121.74 87.18 C 125.70 92.43 130.11 97.34 133.69 102.87 C 122.45 103.08 111.21 102.86 99.98 102.99 C 98.11 102.95 96.21 103.06 94.39 102.62 C 91.46 100.21 89.44 96.92 87.05 94.01 C 77.60 81.62 67.62 69.63 58.40 57.08 Z" />
</g>
<g id="#00bfe9ff">
<path fill="#00bfe9" opacity="1.00" d=" M 86.14 2.15 C 98.57 1.71 111.01 2.09 123.45 2.00 C 110.61 15.02 97.69 27.95 84.67 40.77 C 79.69 34.29 74.46 27.99 69.70 21.34 C 68.53 20.32 69.05 18.85 70.08 17.96 C 75.22 12.48 80.46 7.08 86.14 2.15 Z" />
<path fill="#00bfe9" opacity="1.00" d=" M 12.14 102.82 C 24.77 89.55 37.98 76.85 50.87 63.83 C 56.29 70.87 62.25 77.52 67.28 84.86 C 61.34 90.73 55.41 96.59 49.60 102.57 C 37.13 103.15 24.62 102.74 12.14 102.82 Z" />
</g>
</svg>
