<?xml version="1.0" encoding="UTF-8" ?>
<!DOCTYPE svg PUBLIC "-//W3C//DTD SVG 1.1//EN" "http://www.w3.org/Graphics/SVG/1.1/DTD/svg11.dtd">
<svg width="519pt" height="110pt" viewBox="0 0 519 110" version="1.1" xmlns="http://www.w3.org/2000/svg">
<g id="#ffffffff">
</g>
<g id="#333333ff">
<path fill="#333333" opacity="1.00" d=" M 142.36 3.00 C 147.94 2.98 153.53 2.99 159.12 2.99 C 167.00 26.67 175.34 50.19 183.20 73.87 C 191.42 50.32 199.05 26.58 207.09 2.97 C 212.63 2.99 218.18 2.97 223.73 3.00 C 223.72 31.00 223.73 58.99 223.73 86.99 C 219.98 86.99 216.24 87.00 212.50 87.00 C 212.57 63.65 212.36 40.30 212.60 16.94 C 204.59 40.26 196.64 63.60 188.89 87.01 C 185.02 87.00 181.16 86.99 177.30 86.98 C 169.33 63.29 161.64 39.51 153.58 15.85 C 154.18 39.56 153.78 63.28 153.90 87.00 C 150.04 87.00 146.19 87.00 142.33 86.97 C 142.39 58.98 142.36 30.99 142.36 3.00 Z" />
<path fill="#333333" opacity="1.00" d=" M 496.29 8.40 C 499.85 8.36 503.42 8.36 506.99 8.38 C 507.00 14.05 506.98 19.71 507.02 25.38 C 510.40 25.36 513.78 25.36 517.17 25.36 C 517.14 28.34 517.13 31.33 517.13 34.32 C 513.75 34.31 510.38 34.31 507.01 34.30 C 506.98 46.54 507.01 58.77 506.98 71.01 C 507.09 73.27 506.83 75.86 508.35 77.74 C 510.97 79.42 514.20 79.02 517.17 79.14 C 517.14 81.75 517.14 84.36 517.15 86.97 C 511.56 86.73 505.31 88.08 500.36 84.77 C 496.75 82.51 496.25 77.87 496.26 74.00 C 496.28 60.76 496.23 47.52 496.30 34.28 C 493.70 34.30 491.10 34.32 488.51 34.33 C 488.50 31.36 488.50 28.38 488.52 25.41 C 491.10 25.37 493.67 25.36 496.25 25.33 C 496.27 19.69 496.24 14.04 496.29 8.40 Z" />
<path fill="#333333" opacity="1.00" d=" M 245.35 27.34 C 253.68 22.83 263.88 22.65 272.81 25.39 C 279.16 27.33 284.40 33.24 284.43 40.06 C 284.88 51.72 284.48 63.38 284.62 75.04 C 284.55 76.78 285.23 78.40 285.83 80.00 C 287.85 79.89 289.88 79.79 291.92 79.69 C 291.91 82.11 291.92 84.52 291.92 86.94 C 287.07 87.54 281.26 88.32 277.31 84.75 C 275.57 83.35 275.43 81.02 275.08 79.00 C 269.63 84.09 262.52 87.46 255.02 87.79 C 248.91 88.10 242.11 86.86 237.78 82.19 C 230.98 74.49 232.63 60.93 241.39 55.38 C 250.39 49.48 261.82 52.02 271.64 48.79 C 277.16 45.24 274.99 35.61 268.93 33.82 C 263.62 32.06 257.37 31.72 252.22 34.17 C 248.28 35.99 247.18 40.46 246.10 44.26 C 242.89 44.35 239.68 44.35 236.47 44.29 C 236.90 37.78 239.41 30.75 245.35 27.34 M 250.11 61.43 C 242.42 64.00 242.79 76.90 250.39 79.34 C 257.94 81.21 266.80 78.96 271.86 72.85 C 275.44 67.94 274.33 61.48 274.47 55.79 C 266.75 59.24 258.07 58.88 250.11 61.43 Z" />
<path fill="#333333" opacity="1.00" d=" M 305.41 36.33 C 310.35 26.32 323.02 21.56 333.54 24.62 C 338.39 26.13 342.08 29.86 345.12 33.77 C 345.13 30.97 345.16 28.16 345.20 25.35 C 348.43 25.34 351.66 25.34 354.89 25.35 C 354.91 44.91 354.89 64.48 354.91 84.04 C 354.92 89.16 354.21 94.40 351.91 99.03 C 349.45 104.32 344.60 108.30 339.04 110.00 L 316.30 110.00 C 308.32 108.71 304.03 100.60 302.79 93.31 C 306.33 93.24 309.87 93.23 313.42 93.34 C 314.86 96.68 316.32 100.64 320.08 101.99 C 326.76 104.36 335.38 103.89 340.56 98.56 C 344.87 93.73 344.51 86.86 345.04 80.83 C 335.19 91.49 316.24 89.55 307.87 78.06 C 300.05 65.82 299.06 49.41 305.41 36.33 M 324.50 33.60 C 316.94 34.93 312.94 42.84 312.39 49.87 C 311.84 58.51 312.00 68.22 317.67 75.31 C 324.04 82.91 337.61 80.85 342.27 72.37 C 345.39 66.85 345.58 60.26 345.18 54.09 C 344.83 48.43 343.73 42.45 340.04 37.95 C 336.29 33.59 329.92 32.43 324.50 33.60 Z" />
<path fill="#333333" opacity="1.00" d=" M 385.73 24.78 C 393.03 22.41 401.61 23.65 407.60 28.56 C 412.31 32.96 413.72 39.74 413.81 45.94 C 413.82 59.63 413.81 73.31 413.82 87.00 C 410.38 86.99 406.94 87.00 403.50 87.00 C 403.50 73.64 403.52 60.28 403.50 46.91 C 403.47 42.68 402.66 37.72 398.84 35.23 C 392.02 31.45 382.34 33.30 377.86 39.81 C 374.77 44.56 374.38 50.41 374.30 55.91 C 374.30 66.27 374.32 76.63 374.32 86.99 C 370.76 87.00 367.21 87.00 363.66 86.99 C 363.69 66.46 363.61 45.92 363.68 25.39 C 367.05 25.36 370.43 25.33 373.81 25.32 C 373.81 28.14 373.81 30.96 373.79 33.78 C 377.12 30.05 380.75 26.19 385.73 24.78 Z" />
<path fill="#333333" opacity="1.00" d=" M 429.04 35.98 C 437.23 22.41 458.24 19.47 470.03 29.91 C 477.91 37.70 479.12 49.40 479.65 59.88 C 464.63 59.93 449.61 59.87 434.59 59.93 C 434.87 65.56 435.61 71.93 440.05 75.94 C 449.00 83.74 465.53 79.62 468.56 67.72 C 472.03 67.65 475.49 67.63 478.96 67.66 C 477.07 75.04 472.76 82.35 465.62 85.66 C 457.49 88.72 448.28 88.60 440.08 85.86 C 432.62 83.33 427.23 76.49 425.21 69.03 C 422.28 58.08 423.39 45.88 429.04 35.98 M 439.57 38.57 C 436.19 42.09 435.13 47.04 434.36 51.69 C 445.96 51.81 457.56 51.73 469.17 51.73 C 468.56 47.09 467.69 42.16 464.57 38.47 C 458.32 31.23 445.90 31.65 439.57 38.57 Z" />
</g>
<g id="#20a094ff">
<path fill="#20a094" opacity="1.00" d=" M 1.43 6.95 C 14.70 6.82 27.97 6.92 41.24 6.98 C 52.04 20.12 62.21 33.78 72.91 47.02 C 74.38 48.86 75.66 50.84 76.89 52.85 C 64.56 52.94 52.22 52.95 39.89 52.88 C 38.04 53.03 36.50 51.92 35.49 50.47 C 24.17 35.94 12.62 21.58 1.43 6.95 Z" />
<path fill="#20a094" opacity="1.00" d=" M 58.39 62.08 C 71.49 61.87 84.59 62.03 97.69 61.99 C 106.75 72.48 114.87 83.73 123.56 94.51 C 126.98 98.93 130.66 103.16 133.69 107.87 C 120.58 107.97 107.47 108.09 94.36 107.81 C 91.19 104.55 88.51 100.87 85.72 97.29 C 76.69 85.49 67.19 74.05 58.39 62.08 Z" />
<path fill="#20a094" opacity="1.00" d=" M 12.04 107.79 C 12.37 107.49 13.01 106.89 13.34 106.58 C 25.48 107.76 37.69 106.45 49.84 107.41 C 44.28 108.29 38.63 107.80 33.02 107.89 C 26.03 107.78 19.03 108.10 12.04 107.79 Z" />
</g>
<g id="#00bfe9ff">
<path fill="#00bfe9" opacity="1.00" d=" M 86.14 7.15 C 98.57 6.71 111.01 7.09 123.45 7.00 C 110.61 20.01 97.69 32.95 84.67 45.77 C 79.57 39.06 74.06 32.63 69.29 25.67 C 68.28 24.54 69.88 23.37 70.48 22.51 C 75.52 17.21 80.61 11.94 86.14 7.15 Z" />
<path fill="#00bfe9" opacity="1.00" d=" M 13.34 106.58 C 25.59 93.75 38.39 81.45 50.86 68.83 C 56.30 75.87 62.24 82.52 67.28 89.86 C 61.44 95.68 55.49 101.40 49.84 107.41 C 37.69 106.45 25.48 107.76 13.34 106.58 Z" />
</g>
</svg>
